<svg width="1200" height="820" viewBox="0 0 1200 820" xmlns="http://www.w3.org/2000/svg" font-family="'Segoe UI', Tahoma, Arial, sans-serif">
  <defs>
    <linearGradient id="bg" x1="0" y1="0" x2="1200" y2="820" gradientUnits="userSpaceOnUse">
      <stop offset="0%" stop-color="#f8fafc"/>
      <stop offset="100%" stop-color="#f1f5f9"/>
    </linearGradient>
    <linearGradient id="accent" x1="0%" y1="0%" x2="100%" y2="0%">
      <stop offset="0%" stop-color="#1d4ed8"/>
      <stop offset="50%" stop-color="#3b82f6"/>
      <stop offset="100%" stop-color="#1d4ed8"/>
    </linearGradient>
    <linearGradient id="appGrad" x1="0%" y1="0%" x2="0%" y2="100%">
      <stop offset="0%" stop-color="#eff6ff"/>
      <stop offset="100%" stop-color="#ffffff"/>
    </linearGradient>
    <linearGradient id="aiGrad" x1="0%" y1="0%" x2="0%" y2="100%">
      <stop offset="0%" stop-color="#fff1f2"/>
      <stop offset="100%" stop-color="#ffffff"/>
    </linearGradient>
    <linearGradient id="searchGrad" x1="0%" y1="0%" x2="0%" y2="100%">
      <stop offset="0%" stop-color="#fffbeb"/>
      <stop offset="100%" stop-color="#ffffff"/>
    </linearGradient>
    <linearGradient id="intGrad" x1="0%" y1="0%" x2="0%" y2="100%">
      <stop offset="0%" stop-color="#f8fafc"/>
      <stop offset="100%" stop-color="#ffffff"/>
    </linearGradient>
    <linearGradient id="storeGrad" x1="0%" y1="0%" x2="100%" y2="0%">
      <stop offset="0%" stop-color="#f0f9ff"/>
      <stop offset="100%" stop-color="#eff6ff"/>
    </linearGradient>
    <filter id="shadow">
      <feDropShadow dx="0" dy="2" stdDeviation="3" flood-color="#94a3b8" flood-opacity="0.14"/>
    </filter>
    <filter id="goldShadow">
      <feDropShadow dx="0" dy="2" stdDeviation="5" flood-color="#f59e0b" flood-opacity="0.2"/>
    </filter>
    <marker id="arrW" markerWidth="8" markerHeight="6" refX="7" refY="3" orient="auto">
      <polygon points="0 0,8 3,0 6" fill="#94a3b8"/>
    </marker>
    <marker id="arrB" markerWidth="8" markerHeight="6" refX="7" refY="3" orient="auto">
      <polygon points="0 0,8 3,0 6" fill="#3b82f6"/>
    </marker>
    <marker id="arrR" markerWidth="8" markerHeight="6" refX="7" refY="3" orient="auto">
      <polygon points="0 0,8 3,0 6" fill="#dc2626"/>
    </marker>
    <pattern id="dots" width="32" height="32" patternUnits="userSpaceOnUse">
      <circle cx="16" cy="16" r="1" fill="#cbd5e1" opacity="0.5"/>
    </pattern>
  </defs>

  <!-- Background -->
  <rect width="1200" height="820" fill="url(#bg)"/>
  <rect width="1200" height="820" fill="url(#dots)"/>
  <rect x="1" y="1" width="1198" height="818" fill="none" stroke="#e2e8f0" stroke-width="1.5"/>

  <!-- ══════════ HEADER ══════════ -->
  <rect x="0" y="0" width="1200" height="68" fill="#ffffff" opacity="0.98"/>
  <rect x="0" y="66" width="1200" height="3" fill="url(#accent)"/>
  <rect x="24" y="12" width="44" height="44" rx="10" fill="#dbeafe"/>
  <text x="46" y="41" text-anchor="middle" font-size="22">🤖</text>
  <text x="80" y="32" font-size="21" font-weight="700" fill="#1e293b">MVCore AI Assistant  <tspan font-size="13" fill="#d97706" font-weight="600">for MultiValue Teams</tspan></text>
  <text x="80" y="52" font-size="11.5" fill="#2563eb">Closed-environment enterprise architecture · LLM and data never exposed to internet · Subnet-isolated · Controlled web search egress</text>
  <text x="80" y="66" font-size="10.5" fill="#94a3b8">React  ·  FastAPI  ·  Fine-tuned LLM  ·  Azure Private VNet  ·  4 Isolated Subnets  ·  NSG Rules  ·  Max 20 Users  ·  ~$130–180/mo</text>
  <rect x="892" y="14" width="292" height="36" rx="18" fill="#eff6ff" stroke="#2563eb" stroke-width="1.5"/>
  <text x="1038" y="37" text-anchor="middle" dominant-baseline="middle" font-size="11" fill="#1d4ed8">☁  Azure Private VNet  ·  4 Subnets</text>

  <!-- ══════════ AZURE PRIVATE VNET BOUNDARY ══════════ -->
  <rect x="18" y="74" width="1164" height="628" rx="20" fill="#fafbff" stroke="#f59e0b" stroke-width="2" stroke-dasharray="8 4"/>
  <text x="26" y="98" font-size="13">🔒</text>
  <text x="1154" y="98" text-anchor="end" font-size="13">🔒</text>
  <text x="26" y="698" font-size="13">🔒</text>
  <text x="1154" y="698" text-anchor="end" font-size="13">🔒</text>
  <text x="50" y="97" font-size="10.5" fill="#d97706" font-weight="700" letter-spacing="1">AZURE PRIVATE VNET — LLM · DATA · EMBEDDINGS · SOURCE CODE NEVER LEAVE THIS BOUNDARY</text>

  <!-- ══════════ USERS + AZURE AD ROW ══════════ -->
  <text x="148" y="128" text-anchor="middle" font-size="26">👤</text>
  <text x="228" y="128" text-anchor="middle" font-size="26">👤</text>
  <text x="308" y="128" text-anchor="middle" font-size="26">👤</text>
  <text x="388" y="128" text-anchor="middle" font-size="26">👤</text>
  <text x="468" y="128" text-anchor="middle" font-size="26">👤</text>
  <text x="308" y="148" text-anchor="middle" font-size="10.5" fill="#475569">Up to 20 Team Members  ·  Browser  ·  HTTPS only  ·  Custom Domain</text>

  <!-- Azure AD box -->
  <rect x="756" y="82" width="398" height="68" rx="10" fill="url(#appGrad)" stroke="#2563eb" stroke-width="1.5" filter="url(#shadow)"/>
  <rect x="756" y="82" width="398" height="28" rx="10" fill="#dbeafe" opacity="0.65"/>
  <text x="774" y="100" font-size="11.5" font-weight="700" fill="#1e40af">🔐  Azure Active Directory</text>
  <text x="774" y="117" font-size="10" fill="#2563eb">OAuth 2.0  ·  SAML 2.0  ·  MFA  ·  Conditional Access  ·  SSO</text>
  <text x="774" y="140" font-size="10" fill="#64748b">Max 20 users  ·  IP Allowlist  ·  Role assignments  ·  FREE tier</text>

  <!-- Arrows users → Front Door -->
  <line x1="308" y1="152" x2="308" y2="164" stroke="#94a3b8" stroke-width="1.5" marker-end="url(#arrW)"/>
  <line x1="600" y1="152" x2="600" y2="164" stroke="#94a3b8" stroke-width="1.5" marker-end="url(#arrW)"/>

  <!-- ══════════ AZURE FRONT DOOR STRIP ══════════ -->
  <rect x="36" y="166" width="1128" height="40" rx="8" fill="url(#appGrad)" stroke="#3b82f6" stroke-width="1.8" filter="url(#shadow)"/>
  <rect x="36" y="166" width="1128" height="20" rx="8" fill="#dbeafe" opacity="0.6"/>
  <text x="60" y="191" dominant-baseline="middle" font-size="11" font-weight="700" fill="#1e40af">🌐  Azure Front Door Standard  — Single entry point into VNet</text>
  <line x1="310" y1="170" x2="310" y2="202" stroke="#bfdbfe" stroke-width="1"/>
  <text x="420" y="183" text-anchor="middle" dominant-baseline="middle" font-size="10" fill="#475569">🛡 WAF · DDoS</text>
  <line x1="526" y1="170" x2="526" y2="202" stroke="#bfdbfe" stroke-width="1"/>
  <text x="618" y="183" text-anchor="middle" dominant-baseline="middle" font-size="10" fill="#475569">🔑 SSL/TLS Termination</text>
  <line x1="710" y1="170" x2="710" y2="202" stroke="#bfdbfe" stroke-width="1"/>
  <text x="800" y="183" text-anchor="middle" dominant-baseline="middle" font-size="10" fill="#475569">⚖ Load Balancer</text>
  <line x1="890" y1="170" x2="890" y2="202" stroke="#bfdbfe" stroke-width="1"/>
  <text x="970" y="183" text-anchor="middle" dominant-baseline="middle" font-size="10" fill="#475569">🌍 Custom Domain</text>
  <line x1="1052" y1="170" x2="1052" y2="202" stroke="#bfdbfe" stroke-width="1"/>
  <text x="1100" y="183" text-anchor="middle" dominant-baseline="middle" font-size="10" fill="#64748b">~$35/mo</text>

  <!-- Arrow Front Door → App Subnet -->
  <line x1="600" y1="206" x2="600" y2="218" stroke="#3b82f6" stroke-width="2" marker-end="url(#arrB)"/>

  <!-- ══════════ APP SUBNET (FULL WIDTH) ══════════ -->
  <!-- Subnet A: 10.0.1.0/24 — App Layer -->
  <rect x="36" y="220" width="1128" height="138" rx="10" fill="url(#appGrad)" stroke="#3b82f6" stroke-width="2" filter="url(#shadow)"/>
  <rect x="36" y="220" width="1128" height="32" rx="10" fill="#dbeafe" opacity="0.6"/>
  <!-- Subnet label -->
  <text x="58" y="240" dominant-baseline="middle" font-size="11" font-weight="700" fill="#1e40af">⚡  App Subnet  ·  10.0.1.0/24  ·  FastAPI Backend  ·  Azure Container Apps  ·  Auto-scale 0→3  ·  ~$10–15/mo</text>
  <!-- NSG badge -->
  <rect x="988" y="224" width="168" height="18" rx="9" fill="#dbeafe" stroke="#3b82f6" stroke-width="1"/>
  <text x="1072" y="236" text-anchor="middle" dominant-baseline="middle" font-size="9" fill="#1d4ed8">NSG: INBOUND FROM FRONT DOOR ONLY</text>

  <!-- 4 sub-cards -->
  <rect x="54" y="258" width="252" height="74" rx="7" fill="#ffffff" stroke="#e2e8f0" stroke-width="1" filter="url(#shadow)"/>
  <rect x="54" y="258" width="4" height="74" rx="2" fill="#3b82f6"/>
  <text x="70" y="276" font-size="11" font-weight="600" fill="#1e40af">🧭  Query Router</text>
  <text x="70" y="291" font-size="9.5" fill="#475569">Intent detection · 14 query types</text>
  <text x="70" y="305" font-size="9.5" fill="#475569">Routes to LLM / RAG / Search</text>
  <text x="70" y="319" font-size="9.5" fill="#475569">Session &amp; context management</text>

  <rect x="318" y="258" width="252" height="74" rx="7" fill="#ffffff" stroke="#e2e8f0" stroke-width="1" filter="url(#shadow)"/>
  <rect x="318" y="258" width="4" height="74" rx="2" fill="#3b82f6"/>
  <text x="334" y="276" font-size="11" font-weight="600" fill="#1e40af">🔎  RAG Engine</text>
  <text x="334" y="291" font-size="9.5" fill="#475569">Direct file load + vector search</text>
  <text x="334" y="305" font-size="9.5" fill="#475569">Graph context + prompt builder</text>
  <text x="334" y="319" font-size="9.5" fill="#475569">Queries AI subnet only (private)</text>

  <rect x="582" y="258" width="252" height="74" rx="7" fill="#ffffff" stroke="#e2e8f0" stroke-width="1" filter="url(#shadow)"/>
  <rect x="582" y="258" width="4" height="74" rx="2" fill="#3b82f6"/>
  <text x="598" y="276" font-size="11" font-weight="600" fill="#1e40af">🔐  Auth  ·  Multi-tenant</text>
  <text x="598" y="291" font-size="9.5" fill="#475569">Validates Azure AD tokens</text>
  <text x="598" y="305" font-size="9.5" fill="#475569">Role-based access per user</text>
  <text x="598" y="319" font-size="9.5" fill="#475569">Per-session isolation</text>

  <rect x="848" y="258" width="288" height="74" rx="7" fill="#ffffff" stroke="#e2e8f0" stroke-width="1" filter="url(#shadow)"/>
  <rect x="848" y="258" width="4" height="74" rx="2" fill="#3b82f6"/>
  <text x="864" y="276" font-size="11" font-weight="600" fill="#1e40af">⚡  Streaming  ·  SSE</text>
  <text x="864" y="291" font-size="9.5" fill="#475569">Server-sent events (token stream)</text>
  <text x="864" y="305" font-size="9.5" fill="#475569">Handles concurrent users</text>
  <text x="864" y="319" font-size="9.5" fill="#475569">WebSocket fallback</text>

  <!-- Arrows App → 3 service subnets -->
  <line x1="221" y1="358" x2="221" y2="374" stroke="#ef4444" stroke-width="1.8" marker-end="url(#arrR)"/>
  <line x1="599" y1="358" x2="599" y2="374" stroke="#d97706" stroke-width="1.8" marker-end="url(#arrW)"/>
  <line x1="977" y1="358" x2="977" y2="374" stroke="#94a3b8" stroke-width="1.8" marker-end="url(#arrW)"/>
  <!-- Arrow labels -->
  <text x="221" y="368" text-anchor="middle" font-size="8.5" fill="#ef4444">query only</text>
  <text x="599" y="368" text-anchor="middle" font-size="8.5" fill="#d97706">search string only</text>
  <text x="977" y="368" text-anchor="middle" font-size="8.5" fill="#94a3b8">API call</text>

  <!-- ══════════ AI SUBNET ══════════ -->
  <!-- 10.0.2.0/24 — NO INTERNET OUTBOUND -->
  <rect x="36" y="376" width="370" height="200" rx="10" fill="url(#aiGrad)" stroke="#fca5a5" stroke-width="2" filter="url(#shadow)"/>
  <rect x="36" y="376" width="370" height="32" rx="10" fill="#fee2e2" opacity="0.75"/>
  <text x="56" y="396" dominant-baseline="middle" font-size="10.5" font-weight="700" fill="#991b1b">🧠  AI Subnet  ·  10.0.2.0/24</text>
  <rect x="278" y="380" width="120" height="18" rx="9" fill="#fecaca" stroke="#f87171" stroke-width="1"/>
  <text x="338" y="392" text-anchor="middle" dominant-baseline="middle" font-size="8.5" fill="#991b1b">🚫 NSG: NO INTERNET OUT</text>

  <!-- LLM mini-card -->
  <rect x="52" y="414" width="338" height="72" rx="7" fill="#ffffff" stroke="#fca5a5" stroke-width="1.5" filter="url(#shadow)"/>
  <rect x="52" y="414" width="4" height="72" rx="2" fill="#f59e0b"/>
  <text x="68" y="431" font-size="11" font-weight="700" fill="#92400e">⭐  Fine-tuned LLM  (GPU VM)</text>
  <rect x="68" y="436" width="140" height="13" rx="6" fill="#fef3c7" stroke="#f59e0b" stroke-width="1"/>
  <text x="138" y="446" text-anchor="middle" dominant-baseline="middle" font-size="8.5" fill="#92400e">MVCore / UniBasic domain</text>
  <text x="68" y="460" font-size="9.5" fill="#b45309">NC4as T4 v3  ·  NVIDIA T4  ·  16GB VRAM</text>
  <text x="68" y="474" font-size="9.5" fill="#b45309">SPOT: ~$0.18/hr · idle-stop → save 70%  ≈ $50/mo</text>

  <!-- ChromaDB mini-card -->
  <rect x="52" y="494" width="338" height="58" rx="7" fill="#ffffff" stroke="#fca5a5" stroke-width="1.5" filter="url(#shadow)"/>
  <rect x="52" y="494" width="4" height="58" rx="2" fill="#ef4444"/>
  <text x="68" y="511" font-size="11" font-weight="700" fill="#991b1b">🔍  Vector Store  (ChromaDB)</text>
  <text x="68" y="527" font-size="9.5" fill="#475569">Semantic search · nomic-embed-text</text>
  <text x="68" y="541" font-size="9.5" fill="#475569">Private endpoint · no public IP · encrypted</text>

  <!-- No internet badge -->
  <rect x="52" y="558" width="338" height="14" rx="7" fill="#fee2e2"/>
  <text x="221" y="568" text-anchor="middle" dominant-baseline="middle" font-size="9" fill="#dc2626" font-weight="600">🚫  OUTBOUND INTERNET BLOCKED  —  Internal VNet traffic only</text>

  <!-- ══════════ SEARCH SUBNET ══════════ -->
  <!-- 10.0.3.0/24 — CONTROLLED EGRESS ONLY -->
  <rect x="414" y="376" width="370" height="200" rx="10" fill="url(#searchGrad)" stroke="#fde68a" stroke-width="2" filter="url(#shadow)"/>
  <rect x="414" y="376" width="370" height="32" rx="10" fill="#fef9c3" opacity="0.85"/>
  <text x="434" y="396" dominant-baseline="middle" font-size="10.5" font-weight="700" fill="#92400e">🌐  Search Subnet  ·  10.0.3.0/24</text>
  <rect x="638" y="380" width="138" height="18" rx="9" fill="#fef3c7" stroke="#f59e0b" stroke-width="1"/>
  <text x="707" y="392" text-anchor="middle" dominant-baseline="middle" font-size="8.5" fill="#92400e">↗ NSG: EGRESS PORT 443 ONLY</text>

  <!-- SearXNG card -->
  <rect x="430" y="414" width="338" height="88" rx="7" fill="#ffffff" stroke="#fde68a" stroke-width="1.5" filter="url(#shadow)"/>
  <rect x="430" y="414" width="4" height="88" rx="2" fill="#f59e0b"/>
  <text x="446" y="431" font-size="11" font-weight="700" fill="#92400e">🔍  SearXNG  (Azure Container Instance)</text>
  <text x="446" y="447" font-size="9.5" fill="#475569">Anonymous proxy · no cookies · no tracking</text>
  <text x="446" y="461" font-size="9.5" fill="#475569">Only search QUERY STRING leaves the VNet</text>
  <text x="446" y="475" font-size="9.5" fill="#475569">Results return as plain text  ·  ~$3–5/mo</text>
  <text x="446" y="489" font-size="9.5" fill="#d97706">NSG allows: outbound 443 to search engines only</text>

  <!-- Data isolation note -->
  <rect x="430" y="508" width="338" height="28" rx="7" fill="#fffbeb" stroke="#fde68a" stroke-width="1"/>
  <text x="599" y="518" text-anchor="middle" dominant-baseline="middle" font-size="9.5" font-weight="600" fill="#92400e">FastAPI sends: "search query text" only</text>
  <text x="599" y="530" text-anchor="middle" dominant-baseline="middle" font-size="9" fill="#b45309">Source code · data · embeddings NEVER sent to internet</text>

  <!-- Egress arrow note -->
  <text x="599" y="554" text-anchor="middle" font-size="9" fill="#d97706">↗  Outbound to DuckDuckGo / Bing only  ·  Results flow back IN</text>
  <rect x="430" y="558" width="338" height="14" rx="7" fill="#fef3c7"/>
  <text x="599" y="568" text-anchor="middle" dominant-baseline="middle" font-size="9" fill="#92400e" font-weight="600">✅  CONTROLLED EGRESS  —  Query-only · Anonymous · Isolated subnet</text>

  <!-- ══════════ INTEGRATIONS SUBNET ══════════ -->
  <!-- 10.0.4.0/24 — ORG APIs ONLY -->
  <rect x="792" y="376" width="372" height="200" rx="10" fill="url(#intGrad)" stroke="#cbd5e1" stroke-width="1.8" filter="url(#shadow)"/>
  <rect x="792" y="376" width="372" height="32" rx="10" fill="#f1f5f9" opacity="0.85"/>
  <text x="812" y="396" dominant-baseline="middle" font-size="10.5" font-weight="700" fill="#334155">🔌  Integration Subnet  ·  10.0.4.0/24</text>
  <rect x="1038" y="380" width="118" height="18" rx="9" fill="#f1f5f9" stroke="#94a3b8" stroke-width="1"/>
  <text x="1097" y="392" text-anchor="middle" dominant-baseline="middle" font-size="8.5" fill="#475569">🔒 ORG ENDPOINTS ONLY</text>

  <!-- 3 integration cards -->
  <rect x="808" y="414" width="340" height="38" rx="6" fill="#ffffff" stroke="#e2e8f0" stroke-width="1" filter="url(#shadow)"/>
  <rect x="808" y="414" width="4" height="38" rx="2" fill="#3b82f6"/>
  <text x="824" y="428" font-size="10.5" font-weight="600" fill="#1e40af">🎫  Jira</text>
  <text x="824" y="443" font-size="9.5" fill="#475569">Tickets · sprints · status  ·  read-only API token</text>

  <rect x="808" y="458" width="340" height="38" rx="6" fill="#ffffff" stroke="#e2e8f0" stroke-width="1" filter="url(#shadow)"/>
  <rect x="808" y="458" width="4" height="38" rx="2" fill="#3b82f6"/>
  <text x="824" y="472" font-size="10.5" font-weight="600" fill="#1e40af">📋  Confluence</text>
  <text x="824" y="487" font-size="9.5" fill="#475569">Docs · runbooks · specs  ·  read-only</text>

  <rect x="808" y="502" width="340" height="38" rx="6" fill="#ffffff" stroke="#e2e8f0" stroke-width="1" filter="url(#shadow)"/>
  <rect x="808" y="502" width="4" height="38" rx="2" fill="#3b82f6"/>
  <text x="824" y="516" font-size="10.5" font-weight="600" fill="#1e40af">🐙  GitHub</text>
  <text x="824" y="531" font-size="9.5" fill="#475569">Commits · history · webhook sync</text>

  <rect x="808" y="548" width="340" height="24" rx="6" fill="#f8fafc" stroke="#e2e8f0" stroke-width="1"/>
  <text x="978" y="563" text-anchor="middle" dominant-baseline="middle" font-size="9" fill="#64748b">NSG: ALLOW OUTBOUND to org-specific IPs only  ·  DENY all others</text>

  <!-- ══════════ GITHUB SYNC STRIP ══════════ -->
  <rect x="36" y="582" width="1128" height="34" rx="7" fill="#eff6ff" stroke="#93c5fd" stroke-width="1" stroke-dasharray="5 3"/>
  <text x="600" y="595" text-anchor="middle" dominant-baseline="middle" font-size="10.5" font-weight="600" fill="#1d4ed8">🐙  GitHub Webhook Auto-Sync</text>
  <line x1="660" y1="595" x2="720" y2="595" stroke="#3b82f6" stroke-width="1.5" marker-end="url(#arrB)" opacity="0.8"/>
  <text x="800" y="595" text-anchor="middle" dominant-baseline="middle" font-size="9.5" fill="#2563eb">Pull MV source on push → Azure Blob</text>
  <line x1="932" y1="595" x2="994" y2="595" stroke="#3b82f6" stroke-width="1.5" marker-end="url(#arrB)" opacity="0.8"/>
  <text x="1082" y="595" text-anchor="middle" dominant-baseline="middle" font-size="9.5" fill="#2563eb">Re-index ChromaDB (AI Subnet)</text>
  <text x="600" y="609" text-anchor="middle" dominant-baseline="middle" font-size="8.5" fill="#64748b">RAG always current · no manual steps · sync runs inside VNet</text>

  <!-- ══════════ STORAGE ROW ══════════ -->
  <rect x="36" y="622" width="1128" height="56" rx="9" fill="url(#storeGrad)" stroke="#7dd3fc" stroke-width="1.5" filter="url(#shadow)"/>
  <text x="68" y="644" font-size="11" font-weight="600" fill="#0369a1">☁  Azure Blob Storage  ·  Private Endpoints Only  ·  No Public IP  ·  Encrypted at Rest  ·  ~$5/mo</text>
  <line x1="264" y1="630" x2="264" y2="672" stroke="#bae6fd" stroke-width="1" opacity="0.7"/>
  <text x="424" y="650" text-anchor="middle" font-size="10.5" fill="#0284c7">🗂️  MV Source Programs</text>
  <text x="424" y="664" text-anchor="middle" font-size="9.5" fill="#64748b">100+ UniBasic files (synced from GitHub)</text>
  <line x1="584" y1="630" x2="584" y2="672" stroke="#bae6fd" stroke-width="1" opacity="0.7"/>
  <text x="718" y="650" text-anchor="middle" font-size="10.5" fill="#0284c7">📄  Dict Layouts  ·  📖  Syntax PDFs</text>
  <text x="718" y="664" text-anchor="middle" font-size="9.5" fill="#64748b">Schema defs + UniBasic syntax references</text>
  <line x1="852" y1="630" x2="852" y2="672" stroke="#bae6fd" stroke-width="1" opacity="0.7"/>
  <text x="1000" y="650" text-anchor="middle" font-size="10.5" fill="#0284c7">🧠  Embeddings Cache  ·  🔗  Dep. Graph</text>
  <text x="1000" y="664" text-anchor="middle" font-size="9.5" fill="#64748b">ChromaDB vectors + call-graph JSON</text>

  <!-- ══════════ BOTTOM STRIP ══════════ -->
  <rect x="0" y="718" width="1200" height="98" fill="#ffffff" opacity="0.98"/>
  <rect x="0" y="718" width="1200" height="3" fill="url(#accent)"/>
  <rect x="0" y="718" width="1200" height="98" fill="none" stroke="#e2e8f0" stroke-width="1"/>

  <!-- NSG Security Legend -->
  <text x="32" y="738" font-size="9" fill="#94a3b8" font-weight="700" letter-spacing="1.5">SUBNET NSG RULES</text>
  <rect x="32" y="744" width="160" height="18" rx="9" fill="#fee2e2" stroke="#fca5a5" stroke-width="1"/>
  <text x="112" y="756" text-anchor="middle" dominant-baseline="middle" font-size="9" fill="#991b1b">🚫 AI Subnet — NO INTERNET</text>
  <rect x="200" y="744" width="178" height="18" rx="9" fill="#fef9c3" stroke="#fde68a" stroke-width="1"/>
  <text x="289" y="756" text-anchor="middle" dominant-baseline="middle" font-size="9" fill="#92400e">↗ Search Subnet — EGRESS ONLY</text>
  <rect x="386" y="744" width="178" height="18" rx="9" fill="#dbeafe" stroke="#93c5fd" stroke-width="1"/>
  <text x="475" y="756" text-anchor="middle" dominant-baseline="middle" font-size="9" fill="#1d4ed8">↙ App Subnet — INBOUND ONLY</text>
  <rect x="572" y="744" width="178" height="18" rx="9" fill="#f1f5f9" stroke="#cbd5e1" stroke-width="1"/>
  <text x="661" y="756" text-anchor="middle" dominant-baseline="middle" font-size="9" fill="#475569">🔒 Storage — Private Endpoints</text>

  <!-- Cost summary -->
  <text x="32" y="780" font-size="9" fill="#94a3b8" font-weight="700" letter-spacing="1.5">COST ESTIMATE</text>
  <text x="32" y="796" font-size="10.5" fill="#64748b">Front Door: ~$35  ·  FastAPI (Container Apps): ~$10–15  ·  LLM VM SPOT + idle-stop: ~$50–80  ·  SearXNG ACI: ~$4  ·  Blob + misc: ~$10  →  <tspan font-weight="700" fill="#2563eb">Total ~$110–145/mo</tspan>  for 20 users</text>
  <text x="32" y="810" font-size="9.5" fill="#94a3b8">#EnterpriseAI  #PrivateCloud  #ZeroTrust  #FastAPI  #React  #Azure  #FineTuning  #RAG  #MultiValue  #UniBasic  #NSG  #DataSecurity</text>
</svg>
